<svg width="430pt" height="52pt" viewBox="0 0 430 52" xmlns="http://www.w3.org/2000/svg"><g id="fontsvg1699626156551" stroke-linecap="round" fill-rule="evenodd" fill="#ffffff"><path d="M 253.36 24.32 L 275.84 24.32 Q 276.475 24.32 276.606 24.824 A 1.179 1.179 0 0 1 276.64 25.12 L 276.64 40 A 16.426 16.426 0 0 1 276.338 43.259 Q 275.948 45.182 275.058 46.659 A 8.665 8.665 0 0 1 273.76 48.32 A 9.261 9.261 0 0 1 269.778 50.629 Q 267.863 51.2 265.44 51.2 L 238.56 51.2 A 16.426 16.426 0 0 1 235.302 50.898 Q 233.379 50.508 231.902 49.618 A 8.665 8.665 0 0 1 230.24 48.32 A 9.261 9.261 0 0 1 227.932 44.338 Q 227.36 42.423 227.36 40 L 227.36 11.2 A 16.426 16.426 0 0 1 227.663 7.942 Q 228.053 6.019 228.943 4.542 A 8.665 8.665 0 0 1 230.24 2.88 A 9.261 9.261 0 0 1 234.223 0.572 Q 236.138 0 238.56 0 L 265.44 0 A 16.426 16.426 0 0 1 268.699 0.303 Q 270.622 0.693 272.099 1.583 A 8.665 8.665 0 0 1 273.76 2.88 A 9.261 9.261 0 0 1 276.069 6.863 Q 276.64 8.778 276.64 11.2 L 276.64 22.4 Q 276.64 23.035 276.137 23.166 A 1.179 1.179 0 0 1 275.84 23.2 L 253.36 23.2 Q 252.726 23.2 252.595 22.697 A 1.179 1.179 0 0 1 252.56 22.4 L 252.56 14.08 L 251.44 14.08 L 251.44 37.12 L 257.2 37.12 L 257.2 36 L 253.28 36 A 0.924 0.924 0 0 1 252.982 35.956 Q 252.57 35.816 252.561 35.229 A 1.729 1.729 0 0 1 252.56 35.2 L 252.56 25.12 Q 252.56 24.486 253.064 24.355 A 1.179 1.179 0 0 1 253.36 24.32 Z M 26 25.52 L 48.48 25.52 Q 49.115 25.52 49.246 26.024 A 1.179 1.179 0 0 1 49.28 26.32 L 49.28 40 A 16.426 16.426 0 0 1 48.978 43.259 Q 48.588 45.182 47.698 46.659 A 8.665 8.665 0 0 1 46.4 48.32 A 9.261 9.261 0 0 1 42.418 50.629 Q 40.503 51.2 38.08 51.2 L 11.2 51.2 A 16.426 16.426 0 0 1 7.942 50.898 Q 6.019 50.508 4.542 49.618 A 8.665 8.665 0 0 1 2.88 48.32 A 9.261 9.261 0 0 1 0.572 44.338 Q 0 42.423 0 40 L 0 11.2 A 16.426 16.426 0 0 1 0.303 7.942 Q 0.693 6.019 1.583 4.542 A 8.665 8.665 0 0 1 2.88 2.88 A 9.261 9.261 0 0 1 6.863 0.572 Q 8.778 0 11.2 0 L 38.08 0 A 16.426 16.426 0 0 1 41.339 0.303 Q 43.262 0.693 44.739 1.583 A 8.665 8.665 0 0 1 46.4 2.88 A 9.261 9.261 0 0 1 48.709 6.863 Q 49.28 8.778 49.28 11.2 L 49.28 23.6 Q 49.28 24.235 48.777 24.366 A 1.179 1.179 0 0 1 48.48 24.4 L 26 24.4 Q 25.366 24.4 25.235 23.897 A 1.179 1.179 0 0 1 25.2 23.6 L 25.2 14.08 L 24.08 14.08 L 24.08 37.12 L 25.2 37.12 L 25.2 26.32 Q 25.2 25.686 25.704 25.555 A 1.179 1.179 0 0 1 26 25.52 Z M 198.56 51.2 L 177.76 51.2 Q 177.126 51.2 176.995 50.697 A 1.179 1.179 0 0 1 176.96 50.4 L 176.96 0.8 Q 176.96 0.166 177.464 0.035 A 1.179 1.179 0 0 1 177.76 0 L 197.28 0 A 0.919 0.919 0 0 1 198.015 0.349 A 1.438 1.438 0 0 1 198.16 0.56 L 207.52 17.92 L 208.48 17.92 L 203.6 8 L 203.6 0.8 A 1.295 1.295 0 0 1 203.632 0.499 Q 203.752 0 204.32 0 L 225.28 0 Q 225.915 0 226.046 0.504 A 1.179 1.179 0 0 1 226.08 0.8 L 226.08 50.4 Q 226.08 51.035 225.577 51.166 A 1.179 1.179 0 0 1 225.28 51.2 L 205.68 51.2 A 0.919 0.919 0 0 1 204.946 50.852 A 1.438 1.438 0 0 1 204.8 50.64 L 195.2 32.8 L 194.32 32.8 L 199.36 43.2 L 199.36 50.4 Q 199.36 51.035 198.857 51.166 A 1.179 1.179 0 0 1 198.56 51.2 Z M 428.88 51.2 L 387.52 51.2 Q 386.886 51.2 386.755 50.697 A 1.179 1.179 0 0 1 386.72 50.4 L 386.72 0.8 Q 386.72 0.166 387.224 0.035 A 1.179 1.179 0 0 1 387.52 0 L 428.88 0 Q 429.515 0 429.646 0.504 A 1.179 1.179 0 0 1 429.68 0.8 L 429.68 18.72 Q 429.68 19.355 429.177 19.486 A 1.179 1.179 0 0 1 428.88 19.52 L 410.72 19.52 L 410.72 20.64 L 428.88 20.64 Q 429.515 20.64 429.646 21.144 A 1.179 1.179 0 0 1 429.68 21.44 L 429.68 30.56 A 0.924 0.924 0 0 1 429.636 30.858 Q 429.496 31.27 428.909 31.28 A 1.729 1.729 0 0 1 428.88 31.28 L 410.72 31.28 L 410.72 32.48 L 428.88 32.48 A 1.295 1.295 0 0 1 429.182 32.512 Q 429.68 32.632 429.68 33.2 L 429.68 50.4 Q 429.68 51.035 429.177 51.166 A 1.179 1.179 0 0 1 428.88 51.2 Z M 362.24 0 L 384.64 0 Q 385.275 0 385.406 0.504 A 1.179 1.179 0 0 1 385.44 0.8 L 385.44 19.2 L 375.2 50.56 Q 374.96 51.2 374.4 51.2 L 347.2 51.2 Q 346.64 51.2 346.4 50.56 L 336.16 19.2 L 336.16 0.8 Q 336.16 0.166 336.664 0.035 A 1.179 1.179 0 0 1 336.96 0 L 359.36 0 Q 359.995 0 360.126 0.504 A 1.179 1.179 0 0 1 360.16 0.8 L 360.16 21.84 L 360.32 37.12 L 361.28 37.12 L 361.44 21.84 L 361.44 0.8 Q 361.44 0.166 361.944 0.035 A 1.179 1.179 0 0 1 362.24 0 Z M 101.12 50.4 L 101.12 0.8 Q 101.12 0.166 101.624 0.035 A 1.179 1.179 0 0 1 101.92 0 L 139.2 0 A 16.426 16.426 0 0 1 142.459 0.303 Q 144.382 0.693 145.859 1.583 A 8.665 8.665 0 0 1 147.52 2.88 A 9.261 9.261 0 0 1 149.829 6.863 Q 150.4 8.778 150.4 11.2 L 150.4 40 A 16.426 16.426 0 0 1 150.098 43.259 Q 149.708 45.182 148.818 46.659 A 8.665 8.665 0 0 1 147.52 48.32 A 9.261 9.261 0 0 1 143.538 50.629 Q 141.623 51.2 139.2 51.2 L 101.92 51.2 Q 101.286 51.2 101.155 50.697 A 1.179 1.179 0 0 1 101.12 50.4 Z M 50.56 40 L 50.56 11.2 A 16.426 16.426 0 0 1 50.863 7.942 Q 51.253 6.019 52.143 4.542 A 8.665 8.665 0 0 1 53.44 2.88 A 9.261 9.261 0 0 1 57.423 0.572 Q 59.338 0 61.76 0 L 88.64 0 A 16.426 16.426 0 0 1 91.899 0.303 Q 93.822 0.693 95.299 1.583 A 8.665 8.665 0 0 1 96.96 2.88 A 9.261 9.261 0 0 1 99.269 6.863 Q 99.84 8.778 99.84 11.2 L 99.84 40 A 16.426 16.426 0 0 1 99.538 43.259 Q 99.148 45.182 98.258 46.659 A 8.665 8.665 0 0 1 96.96 48.32 A 9.261 9.261 0 0 1 92.978 50.629 Q 91.063 51.2 88.64 51.2 L 61.76 51.2 A 16.426 16.426 0 0 1 58.502 50.898 Q 56.579 50.508 55.102 49.618 A 8.665 8.665 0 0 1 53.44 48.32 A 9.261 9.261 0 0 1 51.132 44.338 Q 50.56 42.423 50.56 40 Z M 309.6 32.48 L 309.6 50.4 Q 309.6 51.035 309.097 51.166 A 1.179 1.179 0 0 1 308.8 51.2 L 278.72 51.2 Q 278.086 51.2 277.955 50.697 A 1.179 1.179 0 0 1 277.92 50.4 L 277.92 0.8 Q 277.92 0.166 278.424 0.035 A 1.179 1.179 0 0 1 278.72 0 L 301.12 0 Q 301.755 0 301.886 0.504 A 1.179 1.179 0 0 1 301.92 0.8 L 301.92 31.68 L 308.8 31.68 Q 309.435 31.68 309.566 32.184 A 1.179 1.179 0 0 1 309.6 32.48 Z M 151.68 50.4 L 151.68 0.8 Q 151.68 0.166 152.184 0.035 A 1.179 1.179 0 0 1 152.48 0 L 174.88 0 Q 175.515 0 175.646 0.504 A 1.179 1.179 0 0 1 175.68 0.8 L 175.68 50.4 Q 175.68 51.035 175.177 51.166 A 1.179 1.179 0 0 1 174.88 51.2 L 152.48 51.2 Q 151.846 51.2 151.715 50.697 A 1.179 1.179 0 0 1 151.68 50.4 Z M 310.88 50.4 L 310.88 0.8 Q 310.88 0.166 311.384 0.035 A 1.179 1.179 0 0 1 311.68 0 L 334.08 0 Q 334.715 0 334.846 0.504 A 1.179 1.179 0 0 1 334.88 0.8 L 334.88 50.4 Q 334.88 51.035 334.377 51.166 A 1.179 1.179 0 0 1 334.08 51.2 L 311.68 51.2 Q 311.046 51.2 310.915 50.697 A 1.179 1.179 0 0 1 310.88 50.4 Z M 126.32 13.92 L 125.2 13.92 L 125.2 37.28 L 126.32 37.28 L 126.32 13.92 Z M 75.76 14.08 L 74.64 14.08 L 74.64 37.12 L 75.76 37.12 L 75.76 14.08 Z" vector-effect="non-scaling-stroke"/></g></svg>